<svg xmlns="http://www.w3.org/2000/svg" viewBox="0 0 1127 248"><g transform="translate(-26 -8)"><rect x="56" y="74" width="30" height="160" rx="8" fill="#0D0D0F"/><rect x="56" y="74" width="132" height="28" rx="8" fill="#0D0D0F"/><rect x="56" y="146" width="84" height="26" rx="8" fill="#0D0D0F"/><path d="M122 67.5A29.5 29.5 0 1 0 92.5 38A9.5 9.5 0 0 0 111.5 38A10.5 10.5 0 1 1 122 48.5Z" fill="#0D0D0F"/><path d="M112.5 49h19v33h-19z" fill="#0D0D0F"/><path d="M184 118Q194.66 148.34 225 159Q194.66 169.66 184 200Q173.34 169.66 143 159Q173.34 148.34 184 118Z" fill="#0D0D0F"/><path d="M184 125Q190.12 152.88 218 159Q190.12 165.12 184 193Q177.88 165.12 150 159Q177.88 152.88 184 125Z" fill="#D4FF3A"/></g><g transform="translate(230 74)"><path d="M10.495626822157435 96.0V-0.13994169096210385H84.24489795918367V19.45189504373178H35.54518950437318V40.16326530612245H78.36734693877551V59.33527696793003H35.54518950437318V96.0Z" fill="#0D0D0F"/><path d="M105.95825072886298 96.0V-0.13994169096210385H131.00781341107873V75.42857142857143H179.84746355685132V96.0Z" fill="#0D0D0F"/><path d="M189.5258309037901 96.0 225.63078717201168 -0.13994169096210385H255.71825072886298L291.8232069970846 96.0H265.09434402332363L259.35673469387757 79.34693877551021H221.0127113702624L215.27510204081634 96.0ZM227.03020408163266 60.59475218658892H253.1993002915452L246.34215743440234 40.303206997084544Q245.78239067055395 38.76384839650146 245.01271137026242 36.45481049562682Q244.24303206997087 34.14577259475219 243.4733527696793 31.556851311953352Q242.70367346938775 28.967930029154516 242.00396501457726 26.309037900874635Q241.30425655976677 23.650145772594755 240.60454810495628 21.690962099125358H239.62495626822158Q239.0651895043732 24.349854227405245 238.01562682215746 27.708454810495624Q236.9660641399417 31.067055393586003 235.91650145772596 34.42565597667638Q234.86693877551022 37.78425655976676 234.02728862973763 40.303206997084544Z" fill="#0D0D0F"/><path d="M309.0584256559767 96.0V-0.13994169096210385H334.10798833819246V96.0Z" fill="#0D0D0F"/><path d="M360.8592419825073 96.0V-0.13994169096210385H416.6959766763849Q427.33154518950437 -0.13994169096210385 434.4685714285714 3.848396501457721Q441.6055976676385 7.8367346938775455 445.174110787172 14.763848396501452Q448.74262390670555 21.690962099125358 448.74262390670555 30.227405247813408Q448.74262390670555 39.46355685131195 444.47440233236154 46.670553935860056Q440.2061807580175 53.87755102040816 432.50938775510207 57.93586005830904L451.8213411078717 96.0H423.8330029154519L407.8796501457726 62.13411078717201H385.90880466472305V96.0ZM385.90880466472305 43.521865889212826H411.7980174927114Q416.9758600583091 43.521865889212826 420.12454810495626 40.0932944606414Q423.2732361516035 36.66472303206997 423.2732361516035 30.9271137026239Q423.2732361516035 27.148688046647223 421.8738192419825 24.489795918367342Q420.47440233236154 21.83090379008746 417.9554518950438 20.36151603498542Q415.43650145772597 18.89212827988338 411.7980174927114 18.89212827988338H385.90880466472305Z" fill="#0D0D0F"/><path d="M486.26938775510206 96.0 462.0594752186589 -0.13994169096210385H488.36851311953353L500.12361516034986 50.37900874635568Q500.40349854227406 51.63848396501458 500.82332361516035 54.01749271137027Q501.2431486880467 56.39650145772595 501.73294460641404 59.055393586005835Q502.2227405247814 61.714285714285715 502.64256559766767 63.9533527696793H503.202332361516Q503.48221574344024 62.55393586005831 503.76209912536444 60.66472303206997Q504.04198250728865 58.775510204081634 504.3918367346939 56.886297376093296Q504.74169096209914 54.99708454810496 505.09154518950436 53.31778425655977Q505.44139941690963 51.63848396501458 505.58134110787176 50.37900874635568L516.6367346938775 -0.13994169096210385H543.9253644314869L555.260641399417 50.37900874635568Q555.6804664723032 51.778425655976676 556.1002915451895 54.157434402332356Q556.5201166180758 56.53644314868804 557.0099125364432 59.195335276967924Q557.4997084548105 61.85422740524781 557.9195335276968 63.9533527696793H558.4793002915452Q558.7591836734694 62.413994169096206 559.1090379008747 60.66472303206997Q559.4588921282799 58.91545189504373 559.8087463556851 57.02623906705539Q560.1586005830904 55.137026239067055 560.5084548104957 53.457725947521865Q560.8583090379009 51.778425655976676 561.1381924198251 50.37900874635568L572.4734693877551 -0.13994169096210385H597.1032069970846L572.8932944606414 96.0H544.9049562682216L532.5900874635569 42.82215743440233Q532.3102040816327 40.862973760932945 531.7504373177843 38.34402332361516Q531.1906705539359 35.82507288629738 530.7008746355685 33.30612244897959Q530.2110787172012 30.78717201166181 529.931195335277 28.827988338192412H529.3714285714286Q529.0915451895044 30.78717201166181 528.6717201166181 33.30612244897959Q528.2518950437318 35.82507288629738 527.7620991253644 38.34402332361516Q527.2723032069971 40.862973760932945 526.8524781341108 42.82215743440233L514.6775510204081 96.0Z" fill="#0D0D0F"/><path d="M614.3384256559766 96.0V-0.13994169096210385H639.3879883381924V96.0Z" fill="#0D0D0F"/><path d="M706.0226239067055 97.67930029154519Q696.926413994169 97.67930029154519 688.9497376093293 96.06997084548105Q680.9730612244897 94.46064139941691 674.8855976676384 90.82215743440233Q668.7981341107871 87.18367346938776 665.2995918367346 81.23615160349854Q661.8010495626821 75.28862973760933 661.8010495626821 66.61224489795919Q661.8010495626821 66.05247813411079 661.8010495626821 65.35276967930028Q661.8010495626821 64.65306122448979 661.9409912536443 64.23323615160349H686.1509037900873Q686.1509037900873 64.65306122448979 686.0809329446063 65.28279883381924Q686.0109620991253 65.9125364431487 686.0109620991253 66.33236151603498Q686.0109620991253 70.81049562682216 688.3199999999999 73.53935860058309Q690.6290379008746 76.26822157434403 694.8272886297375 77.45772594752187Q699.0255393586006 78.6472303206997 704.6232069970845 78.6472303206997Q707.7019241982507 78.6472303206997 710.3608163265305 78.36734693877551Q713.0197084548104 78.0874635568513 715.1188338192419 77.38775510204081Q717.2179591836734 76.68804664723032 718.8272886297375 75.63848396501459Q720.4366180758017 74.58892128279884 721.2062973760933 73.1195335276968Q721.9759766763848 71.65014577259475 721.9759766763848 69.69096209912536Q721.9759766763848 66.47230320699708 719.526997084548 64.3731778425656Q717.0780174927113 62.27405247813411 712.9497376093293 60.87463556851311Q708.8214577259474 59.475218658892125 703.6436151603498 58.21574344023323Q698.4657725947521 56.95626822157434 692.8681049562681 55.55685131195335Q687.2704373177842 54.15743440233236 682.0925947521865 52.05830903790087Q676.9147521865889 49.95918367346938 672.7864723032069 46.74052478134111Q668.658192419825 43.521865889212826 666.2092128279883 38.69387755102041Q663.7602332361515 33.86588921282799 663.7602332361515 27.008746355685133Q663.7602332361515 19.45189504373178 666.9788921282798 13.924198250728864Q670.1975510204081 8.396501457725947 675.8651895043731 4.897959183673464Q681.5328279883381 1.3994169096209816 688.9497376093293 -0.20991253644315577Q696.3666472303206 -1.8192419825072932 704.7631486880466 -1.8192419825072932Q713.0197084548104 -1.8192419825072932 720.2267055393585 -0.13994169096210385Q727.4337026239066 1.5393586005830855 733.0313702623905 5.107871720116613Q738.6290379008746 8.67638483965014 741.7777259475217 14.06413994169096Q744.926413994169 19.45189504373178 745.0663556851312 27.008746355685133V28.688046647230323H720.9963848396501V27.708454810495624Q720.9963848396501 24.48979591836735 719.2471137026239 22.04081632653061Q717.4978425655976 19.59183673469387 713.9993002915451 18.12244897959183Q710.5007580174927 16.65306122448979 705.3229154518949 16.65306122448979Q700.1450728862973 16.65306122448979 696.5765597667637 17.632653061224488Q693.0080466472302 18.612244897959187 691.1188338192419 20.431486880466473Q689.2296209912536 22.25072886297376 689.2296209912536 24.769679300291543Q689.2296209912536 27.848396501457728 691.6786005830903 29.80758017492711Q694.1275801749271 31.766763848396494 698.32583090379 33.16618075801749Q702.524081632653 34.565597667638485 707.7019241982507 35.755102040816325Q712.8797667638484 36.944606413994165 718.4074635568513 38.27405247813411Q723.9351603498542 39.60349854227405 729.1130029154518 41.63265306122449Q734.2908454810495 43.66180758017492 738.4890962099125 46.81049562682215Q742.6873469387755 49.95918367346938 745.1363265306122 54.57725947521865Q747.5853061224489 59.19533527696793 747.5853061224489 65.77259475218659Q747.5853061224489 77.24781341107871 742.1975510204081 84.24489795918367Q736.8097959183673 91.24198250728863 727.3637317784255 94.46064139941691Q717.9176676384839 97.67930029154519 706.0226239067055 97.67930029154519Z" fill="#0D0D0F"/><path d="M769.7184839650146 96.0V-0.13994169096210385H849.0654227405247V19.45189504373178H794.7680466472302V37.50437317784257H842.2082798833819V56.67638483965015H794.7680466472302V76.40816326530611H850.0450145772594V96.0Z" fill="#0D0D0F"/></g></svg>